#!OML:ASF F:\VICON\USERDATA\INSTALL\rory3\rory3.ASF
:FULLY-SPECIFIED
:DEGREES
267
root -0.380563 22.1069 7.10216 -168.544 -2.10578 177.561
lowerback 7.88134 -1.28461 -5.70406
upperback 0.355681 -2.20757 1.38059
thorax -3.78491 -1.00415 4.89221
lowerneck -15.497 -1.6023 -7.2683
upperneck 39.4825 4.74284 0.819179
head 16.8364 2.39553 2.9656
rclavicle -6.65929e-015 -1.59028e-015
rhumerus -31.0865 -1.71632 -80.6245
rradius 44.8197
rwrist 14.9774
rhand -20.9665 4.20129
rfingers 7.12502
rthumb 5.40667 -25.7097
lclavicle -6.65929e-015 -1.59028e-015
lhumerus -27.2578 5.04291 81.7276
lradius 37.7488
lwrist -0.165771
lhand -19.2216 23.9826
lfingers 7.12502
lthumb 7.09123 53.8438
rfemur -67.7371 -5.8264 25.3863
rtibia 88.8162
rfoot -12.0928 16.0789
rtoes 2.97452
lfemur -9.56909 0.390808 -28.2974
ltibia 12.8175
lfoot 0.57219 -3.90186
ltoes -25.954
268
root -0.378441 22.0982 7.05992 -168.49 -2.07651 177.325
lowerback 7.91991 -1.27884 -5.96562
upperback 0.390875 -2.22977 1.30456
thorax -3.76052 -1.01373 4.96335
lowerneck -15.4521 -1.58066 -7.35674
upperneck 39.4201 4.70386 0.991457
head 16.782 2.38785 3.04414
rclavicle 1.89839e-014 -1.33186e-014
rhumerus -31.2211 -1.75864 -80.6352
rradius 44.9421
rwrist 14.8327
rhand -20.8696 4.32711
rfingers 7.12502
rthumb 5.50021 -25.5815
lclavicle 1.89839e-014 -1.33186e-014
lhumerus -27.1467 5.0241 81.6885
lradius 37.8928
lwrist -0.191366
lhand -19.1513 23.7848
lfingers 7.12502
lthumb 7.1591 53.6437
rfemur -67.7354 -5.7011 25.3601
rtibia 87.5679
rfoot -11.5522 15.5754
rtoes 3.7159
lfemur -9.60539 0.464305 -28.5487
ltibia 13.0824
lfoot 0.350068 -3.98962
ltoes -26.1663
269
root -0.375578 22.0902 7.02003 -168.435 -2.12323 177.353
lowerback 7.98788 -1.29033 -5.92091
upperback 0.413215 -2.24701 1.28329
thorax -3.77562 -1.02382 4.91957
lowerneck -15.4741 -1.57483 -7.45257
upperneck 39.441 4.65442 1.20847
head 16.7883 2.38027 3.14941
rclavicle -5.26779e-015 -2.82274e-014
rhumerus -31.3892 -1.73994 -80.7034
rradius 45.0942
rwrist 14.7738
rhand -20.8355 4.34127
rfingers 7.12502
rthumb 5.53316 -25.5665
lclavicle -5.26779e-015 -2.82274e-014
lhumerus -27.0631 4.87911 81.6276
lradius 38.0586
lwrist -0.1547
lhand -19.0469 23.754
lfingers 7.12502
lthumb 7.25991 53.6095
rfemur -67.6392 -5.49536 25.6028
rtibia 86.3465
rfoot -11.542 14.8085
rtoes 2.91588
lfemur -9.68555 0.497398 -28.4913
ltibia 13.4249
lfoot 0.116308 -4.00326
ltoes -25.8226
270
root -0.373062 22.0802 6.98121 -168.366 -2.16372 177.356
lowerback 7.9669 -1.29636 -5.92261
upperback 0.485599 -2.25552 1.27057
thorax -3.68762 -1.03432 4.90539
lowerneck -15.4705 -1.55638 -7.42734
upperneck 39.3851 4.63385 1.24739
head 16.7555 2.37706 3.15361
rclavicle 1.87355e-014 -1.98785e-015
rhumerus -31.4132 -1.78805 -80.7402
rradius 45.1257
rwrist 14.8623
rhand -20.8725 4.31398
rfingers 7.12502
rthumb 5.49744 -25.5947
lclavicle 1.87355e-014 -1.98785e-015
lhumerus -26.8877 4.68739 81.6115
lradius 38.1744
lwrist 0.0640278
lhand -19.0938 23.7377
lfingers 7.12502
lthumb 7.21457 53.5947
rfemur -67.49 -5.2665 25.7697
rtibia 85.2248
rfoot -12.6713 13.7332
rtoes -2.85143
lfemur -9.82127 0.486972 -28.4558
ltibia 13.8607
lfoot -0.209497 -4.00124
ltoes -25.6836
271
root -0.368286 22.0705 6.94157 -168.298 -2.21479 177.378
lowerback 7.91644 -1.31361 -5.95571
upperback 0.588046 -2.27907 1.29176
thorax -3.54727 -1.05472 4.94418
lowerneck -15.6114 -1.55723 -7.34674
upperneck 39.3985 4.65178 1.13786
head 16.8038 2.37156 3.09747
rclavicle -9.88954e-015 9.74045e-015
rhumerus -31.3111 -1.78774 -80.7793
rradius 45.1097
rwrist 14.9545
rhand -20.8295 4.03321
rfingers 7.12502
rthumb 5.53893 -25.8744
lclavicle -9.88954e-015 9.74045e-015
lhumerus -26.7121 4.52217 81.6278
lradius 38.378
lwrist 0.374822
lhand -19.1001 23.8059
lfingers 7.12502
lthumb 7.20855 53.6631
rfemur -67.2669 -5.05503 25.9729
rtibia 84.194
rfoot -12.8057 12.8593
rtoes -3.21548
lfemur -10.0171 0.419033 -28.3749
ltibia 14.4182
lfoot -0.587492 -4.00938
ltoes -25.8975
272
root -0.364175 22.0566 6.90073 -168.214 -2.14161 177.329
lowerback 7.8446 -1.28666 -6.04307
upperback 0.648729 -2.24817 1.26324
thorax -3.44556 -1.0444 4.9563
lowerneck -15.5949 -1.57695 -7.29009
upperneck 39.3199 4.60826 1.04536
head 16.7647 2.34539 3.0323
rclavicle 1.48592e-014 2.18663e-014
rhumerus -31.3757 -1.7794 -80.8346
rradius 45.2395
rwrist 14.9464
rhand -20.8338 3.71623
rfingers 7.12502
rthumb 5.53482 -26.1915
lclavicle 1.48592e-014 2.18663e-014
lhumerus -26.6628 4.20029 81.6462
lradius 38.7657
lwrist 0.745401
lhand -19.7901 23.0409
lfingers 7.12502
lthumb 6.54243 52.9198
rfemur -67.059 -4.78145 26.1309
rtibia 83.3679
rfoot -13.0774 11.6841
rtoes -2.36997
lfemur -10.2224 0.416582 -28.4071
ltibia 14.9286
lfoot -0.887886 -3.9654
ltoes -26.2761
273
root -0.36446 22.0389 6.85925 -168.104 -2.08182 177.4
lowerback 7.75672 -1.25103 -5.95934
upperback 0.668096 -2.18785 1.25134
thorax -3.38741 -1.01828 4.88667
lowerneck -15.3607 -1.58034 -7.26042
upperneck 39.1186 4.50718 1.07007
head 16.6008 2.3157 3.00052
rclavicle -1.77415e-014 -5.76476e-015
rhumerus -31.5763 -1.84282 -80.8635
rradius 45.4095
rwrist 15.0031
rhand -20.831 3.55165
rfingers 7.12502
rthumb 5.53752 -26.356
lclavicle -1.77415e-014 -5.76476e-015
lhumerus -26.6233 3.80753 81.7096
lradius 39.0793
lwrist 1.26929
lhand -20.952 21.7541
lfingers 7.12502
lthumb 5.42067 51.6647
rfemur -66.844 -4.54601 26.482
rtibia 82.7796
rfoot -13.6033 10.159
rtoes -0.0480617
lfemur -10.407 0.419073 -28.3208
ltibia 15.3563
lfoot -1.22569 -3.9905
ltoes -26.7064
274
root -0.3626 22.0247 6.81664 -168.015 -2.09943 177.408
lowerback 7.74779 -1.26472 -5.96446
upperback 0.684562 -2.20596 1.25894
thorax -3.36245 -1.02876 4.89854
lowerneck -15.2891 -1.56591 -7.27601
upperneck 39.0476 4.50159 1.08619
head 16.5438 2.31321 3.00239
rclavicle -1.68967e-015 -4.37326e-015
rhumerus -31.67 -1.82166 -80.8789
rradius 45.4014
rwrist 15.106
rhand -20.8151 3.74804
rfingers 7.12502
rthumb 5.55283 -26.1592
lclavicle -1.68967e-015 -4.37326e-015
lhumerus -26.5842 3.554 81.7564
lradius 39.3051
lwrist 1.88052
lhand -21.3137 21.3654
lfingers 7.12502
lthumb 5.07147 51.2847
rfemur -66.572 -4.44443 26.8236
rtibia 82.4715
rfoot -14.3517 8.73572
rtoes 2.71589
lfemur -10.5242 0.378343 -28.2747
ltibia 15.6909
lfoot -1.5006 -4.09076
ltoes -27.0945
275
root -0.359045 22.0081 6.77399 -167.91 -2.0618 177.244
lowerback 7.70363 -1.28109 -6.153
upperback 0.718841 -2.2433 1.21819
thorax -3.29183 -1.04904 4.96347
lowerneck -15.3764 -1.62196 -7.41842
upperneck 39.1819 4.50939 1.09512
head 16.6373 2.29448 3.04359
rclavicle -1.56046e-014 3.57812e-015
rhumerus -31.6928 -1.71712 -80.9471
rradius 45.3747
rwrist 15.0637
rhand -20.76 3.81932
rfingers 7.12502
rthumb 5.60611 -26.0865
lclavicle -1.56046e-014 3.57812e-015
lhumerus -26.6025 3.46606 81.7091
lradius 39.6957
lwrist 2.14791
lhand -21.5212 20.7146
lfingers 7.12502
lthumb 4.87111 50.6386
rfemur -66.3313 -4.33233 26.969
rtibia 82.4557
rfoot -14.9709 7.89048
rtoes 4.12055
lfemur -10.5896 0.401565 -28.425
ltibia 15.934
lfoot -1.7507 -4.14329
ltoes -26.8019
276
root -0.356675 22.001 6.72983 -167.846 -2.12575 177.14
lowerback 7.65264 -1.34097 -6.22381
upperback 0.805192 -2.32853 1.18579
thorax -3.16082 -1.09937 4.97326
lowerneck -15.5126 -1.67588 -7.54323
upperneck 39.2969 4.51561 1.07553
head 16.7348 2.26902 3.06817
rclavicle 6.11263e-015 -1.15295e-014
rhumerus -31.6821 -1.58608 -81.0515
rradius 45.3872
rwrist 15.0662
rhand -20.8093 3.68397
rfingers 7.12502
rthumb 5.55844 -26.2231
lclavicle 6.11263e-015 -1.15295e-014
lhumerus -26.5456 3.46121 81.6613
lradius 40.0274
lwrist 2.43049
lhand -21.3143 20.5842
lfingers 7.12502
lthumb 5.07086 50.5035
rfemur -66.0355 -4.32179 27.1692
rtibia 82.6141
rfoot -15.3689 7.5655
rtoes 4.136
lfemur -10.5751 0.444969 -28.5017
ltibia 16.1293
lfoot -1.95892 -4.25817
ltoes -26.3652
277
root -0.354823 21.9979 6.68517 -167.753 -2.22783 176.949
lowerback 7.68984 -1.38116 -6.34352
upperback 0.810345 -2.39806 1.11849
thorax -3.16532 -1.13321 4.97812
lowerneck -15.5827 -1.68371 -7.59414
upperneck 39.3112 4.49365 1.14108
head 16.7574 2.25645 3.10417
rclavicle -2.01269e-014 9.14409e-015
rhumerus -31.7439 -1.62459 -81.1292
rradius 45.3232
rwrist 15.16
rhand -20.88 3.74343
rfingers 7.12502
rthumb 5.49022 -26.1655
lclavicle -2.01269e-014 9.14409e-015
lhumerus -26.4756 3.258 81.683
lradius 40.1907
lwrist 3.17288
lhand -20.2638 22.2416
lfingers 7.12502
lthumb 6.08517 52.1342
rfemur -65.8163 -4.31877 27.2157
rtibia 82.8793
rfoot -15.6331 7.59915
rtoes 5.28734
lfemur -10.6035 0.377088 -28.6536
ltibia 16.3528
lfoot -2.16183 -4.332
ltoes -25.8207
278
root -0.351594 21.9801 6.64083 -167.638 -2.23437 176.843
lowerback 7.70266 -1.37269 -6.44342
upperback 0.77552 -2.39689 1.09159
thorax -3.20612 -1.12851 5.00769
lowerneck -15.5669 -1.6861 -7.63502
upperneck 39.3559 4.50642 1.18895
head 16.7745 2.26526 3.13792
rclavicle -3.95581e-014 -4.96962e-015
rhumerus -31.8187 -1.66651 -81.1487
rradius 45.2104
rwrist 15.2465
rhand -20.8568 3.79258
rfingers 7.12502
rthumb 5.51262 -26.1157
lclavicle -3.95581e-014 -4.96962e-015
lhumerus -26.5557 3.06704 81.7399
lradius 40.4621
lwrist 3.64703
lhand -19.9175 23.0158
lfingers 7.12502
lthumb 6.41946 52.8985
rfemur -65.6619 -4.14568 27.2879
rtibia 83.151
rfoot -16.0302 7.59796
rtoes 8.01902
lfemur -10.6726 0.309616 -28.7076
ltibia 16.6042
lfoot -2.36848 -4.34194
ltoes -25.1373
279
root -0.350922 21.9589 6.59783 -167.528 -2.23077 176.83
lowerback 7.65555 -1.35879 -6.40159
upperback 0.784935 -2.37174 1.07937
thorax -3.17546 -1.118 4.96671
lowerneck -15.5265 -1.73757 -7.69943
upperneck 39.4317 4.47242 1.216
head 16.8069 2.24998 3.16005
rclavicle -1.799e-014 -9.93923e-016
rhumerus -31.9304 -1.64269 -81.1667
rradius 45.2861
rwrist 15.1718
rhand -20.6187 3.51224
rfingers 7.12502
rthumb 5.74248 -26.3899
lclavicle -1.799e-014 -9.93923e-016
lhumerus -26.5958 2.82496 81.8129
lradius 40.7905
lwrist 3.904
lhand -20.0564 23.0782
lfingers 7.12502
lthumb 6.28536 52.9649
rfemur -65.5001 -3.91498 27.3927
rtibia 83.3397
rfoot -16.9389 7.15427
rtoes 8.88066
lfemur -10.7553 0.276174 -28.6746
ltibia 16.9163
lfoot -2.59608 -4.32392
ltoes -24.2196
280
root -0.3495 21.9506 6.55631 -167.448 -2.30523 176.868
lowerback 7.67686 -1.37747 -6.30333
upperback 0.82927 -2.38999 1.09486
thorax -3.14205 -1.13151 4.92885
lowerneck -15.5491 -1.74058 -7.71135
upperneck 39.4121 4.48574 1.17107
head 16.8037 2.2445 3.14331
rclavicle 2.23633e-015 1.98785e-016
rhumerus -31.9616 -1.58717 -81.1955
rradius 45.3239
rwrist 15.1314
rhand -20.5322 3.34699
rfingers 7.12502
rthumb 5.82603 -26.5529
lclavicle 2.23633e-015 1.98785e-016
lhumerus -26.4764 2.69875 81.8415
lradius 41.0316
lwrist 3.995
lhand -20.2193 22.5738
lfingers 7.12502
lthumb 6.12812 52.4651
rfemur -65.2359 -3.68538 27.4713
rtibia 83.3468
rfoot -18.1261 6.40814
rtoes 7.42286
lfemur -10.8871 0.3369 -28.5944
ltibia 17.3097
lfoot -2.84639 -4.47645
ltoes -24.4987
